<svg xmlns="http://www.w3.org/2000/svg" id="Calque_1" data-name="Calque 1" viewBox="0 0 500 239.58"><defs><style>.cls-1{fill:#e6e6e6;}.cls-2{fill:#c8df30;}</style></defs><polygon class="cls-1" points="227.54 62.26 252.38 0.77 277.22 62.26 297.38 4.74 306.64 4.74 277.22 85.47 252.38 23.67 227.54 85.47 198.12 4.74 207.38 4.74 227.54 62.26"></polygon><path class="cls-1" d="M244.22,138v32.56H233.13V97.82h16.51a51.77,51.77,0,0,1,11.26.94,17.69,17.69,0,0,1,6.83,3.14,17.28,17.28,0,0,1,5.22,6.81,22.35,22.35,0,0,1,1.84,9.14q0,8.76-4.22,13.7t-12.48,5.94l25.05,33.1H269.77L245.56,138Zm.75-9.19h2.13c6.27,0,10.42-.73,12.48-2.19s3.08-4,3.08-7.76c0-4-1.1-6.83-3.3-8.47S253.07,108,247.1,108H245Z"></path><path class="cls-1" d="M356.26,134.65c-.13-.56-.35-2.12-.65-4.67-.26-2.12-.49-3.88-.69-5.27a37.76,37.76,0,0,1-1.27,5,42.18,42.18,0,0,1-2.06,5.07l-19,38.78-19-39.57c-.8-1.63-1.48-3.2-2.06-4.73s-1.09-3-1.52-4.52a46,46,0,0,1-.37,4.8,52.83,52.83,0,0,1-1,5.24l-7.81,35.84H289.9l17.2-75.85,21.47,45.93c.33.73.84,1.94,1.52,3.63s1.49,3.77,2.46,6.26a77.91,77.91,0,0,1,3.28-7.95c.4-.86.69-1.53.89-2l21-45.88,17.6,75.85h-11Z"></path><path class="cls-1" d="M439.57,170.59l-8.26-18.74H402.49L394,170.59H381.61l35.24-75.65L452,170.59ZM406.86,142h20.28l-7.45-16.6c-.44-1.06-.88-2.28-1.35-3.66s-.93-2.91-1.39-4.6c-.4,1.6-.82,3.08-1.27,4.45s-.9,2.65-1.36,3.81Z"></path><polygon class="cls-1" points="458.9 170.59 458.9 97.82 470.74 97.82 470.74 160.01 497.18 160.01 497.18 170.59 458.9 170.59"></polygon><polygon class="cls-1" points="2.82 170.59 2.82 2.25 117.01 126.99 117.01 2.25 134.71 2.25 134.71 170.59 20.52 47.23 20.52 170.59 2.82 170.59"></polygon><path class="cls-1" d="M189.28,202.22a3.53,3.53,0,0,1,2.21,1.16c.84,0,1.25.28,1.25.86.07,0,.1,0,.1.1a8.87,8.87,0,0,0-1.35,4.13v.29c.13.57.29.86.48.86h.58c.9,0,2.4-1.21,4.52-3.65,0-.18.44-.56,1.34-1.15a1.76,1.76,0,0,1,.77-1.06h.1a1.1,1.1,0,0,0,.19.58,10.59,10.59,0,0,1-1.71,3.12q-3.19,4.18-5.4,4.18c-1.33,0-2.32-.77-3-2.31v-.19h-.29c-2.34,2-4.16,3-5.48,3h-.28a2.35,2.35,0,0,1-2.41-2v-.19c0-1.75,1.32-3.57,3.94-5.48l2.69-1.73C187.55,202.48,188.13,202.32,189.28,202.22Zm-6.24,7.4v.67c0,.13.08.2.19.2h.19q1.76,0,4.71-2.79,1.83-1.87,1.83-2.88v-.1c0-.77-.29-1.15-.87-1.15a12.73,12.73,0,0,0-5,3.65A5.76,5.76,0,0,0,183,209.62Z"></path><path class="cls-1" d="M211.29,193.38c1.09.31,1.63.75,1.63,1.32a6.87,6.87,0,0,1-1.63,3.51l.12.22a20.08,20.08,0,0,1-4.06,6.56c-1.17,1.29-1.76,2.13-1.76,2.52v.31c0,1.25.45,1.87,1.33,1.87q2.81.12,7.06-3.43c1.57-1.71,2.47-2.57,2.71-2.57a5.17,5.17,0,0,1-1.17,2.76,29.28,29.28,0,0,1-3.34,2.91c-2,1.46-3.66,2.18-4.93,2.18a4.31,4.31,0,0,1-3.72-2.3,12,12,0,0,1-4.37,2.3h-1.33c-1.52-.41-2.28-1.18-2.28-2.3a.8.8,0,0,1-.12-.43q.56-2.43,4.16-5.15a6.66,6.66,0,0,1,3.39-1.2,4.93,4.93,0,0,0,1.32.34h.21a13,13,0,0,1,2.07-4.59,8.78,8.78,0,0,1,1.87-2.74C209.65,194.08,210.6,193.38,211.29,193.38Zm-13.67,15.33v.74c0,.24.4.4,1.2.46a8.74,8.74,0,0,0,3.82-2.31,3.76,3.76,0,0,0,.89-1.32,2.73,2.73,0,0,1-.55-1.73v-.45a.82.82,0,0,1-.34-.1q-2,0-4.68,3.72A2.87,2.87,0,0,0,197.62,208.71Zm9.08-6.13h.1c.27-.06,1-1,2.21-2.86l1.63-3.26V196q-1.47.33-3.94,6.22Z"></path><path class="cls-1" d="M226.47,201.69c0,.13,0,.2.1.2a14.55,14.55,0,0,1-1.73,3.36,6.26,6.26,0,0,0-1.06,1.73q-5.35,5.67-7.78,5.67c-1,0-1.7-.67-2-2v-.09q0-1.66,2-7.5a5.94,5.94,0,0,1,1.25-.29c.25,0,.38.29.38.87a36.8,36.8,0,0,0-1.83,6.72v.29c0,.1.1.19.29.29q1.66,0,6.15-4.81c.18,0,.76-.75,1.73-2.21a13.72,13.72,0,0,0,2-2.21Z"></path><path class="cls-1" d="M227.72,203.26h.19a.81.81,0,0,1,.77.48V204a11.44,11.44,0,0,0-1.63,5v1.06a1.1,1.1,0,0,0,.58,1.06h.76c.85,0,2.36-1,4.52-2.89.19,0,.38-.19.58-.57a27.32,27.32,0,0,0,2.59-2.69c.1,0,.19-.2.29-.58a1.82,1.82,0,0,1,.86-.39h.1c.13,0,.19.09.19.2a15.68,15.68,0,0,1-3.26,5.38,12.52,12.52,0,0,1-4.91,3.27l-1,.19q-3.36-.39-3.36-3.27c-.08,0-.14-.19-.19-.58.48-2.53,1.18-4.22,2.11-5.09Zm5.29-7.88,1.05.19v.29q-.33,1.08-3.17,3a4.83,4.83,0,0,1-2.11.86q-1-.12-1-1c0-.48,1-1.22,3.07-2.21A10.34,10.34,0,0,1,233,195.38Z"></path><path class="cls-1" d="M238.22,201.05c1.15.22,1.73.8,1.73,1.73-.32,1.53-.74,2.3-1.25,2.3a.7.7,0,0,0-.29.1.84.84,0,0,1-.77-.58,6.13,6.13,0,0,0,.39-1.82.18.18,0,0,0-.19-.2c-1.16.16-1.73.52-1.73,1.06a7.19,7.19,0,0,0,1.73,4.42l.19.1a15.7,15.7,0,0,1,1.92-1.25,12,12,0,0,1,5.43-2.07,3.81,3.81,0,0,1,1.83-.77l.09.2v.28q-.41,0-1.92,1.35l-6.1,3.41-.39.48a5.5,5.5,0,0,1,.77,2.88,5.65,5.65,0,0,1-2.59,3.27,7.33,7.33,0,0,1-3.75,1.63c-1.73-.25-2.59-.83-2.59-1.73v-.48c0-.52.48-1.2,1.44-2a26.12,26.12,0,0,1,4.32-3.85l.1-.19v-.19q-2.31-3.31-2.31-5.29c.13-1.47.61-2.21,1.44-2.21A11.41,11.41,0,0,1,238.22,201.05Zm-5.57,14.6v.1c0,.19.25.29.67.29q1.59,0,3.94-2.21a7.28,7.28,0,0,1,.58-1.25v-.77a3.68,3.68,0,0,0-.2-.87h-.38Q232.66,214.69,232.65,215.65Z"></path><path class="cls-1" d="M249.34,203l.31-.07c1.94-.16,3,.06,3.19.67.1,0,.38.44.84,1.42a5.06,5.06,0,0,1-.09,1.92l0-.07h0a24,24,0,0,0,4.2-2.91,2.82,2.82,0,0,1,.77-.36q.36,1.16-3.84,4.54a7,7,0,0,1-2,1,20.12,20.12,0,0,1-2.69,2.43,4.34,4.34,0,0,0-.63.24,3.38,3.38,0,0,1-3.58-1.27,11.79,11.79,0,0,1-.6-1.18,5,5,0,0,1,3.68-6.1S249,203.14,249.34,203Zm-2.67,5.45.07.22c.3,1,.66,1.53,1.06,1.61a2.14,2.14,0,0,0,1.08,0,4.26,4.26,0,0,0,1.42-1.08v0a4.66,4.66,0,0,1-2.77-2.57s-.09-.06-.14-.24a4.41,4.41,0,0,0-.1-.81h0A3.19,3.19,0,0,0,246.67,208.49Zm2.57-2.26c.53,1.19,1.23,1.67,2.11,1.45l.24-.05a3.05,3.05,0,0,0,.7-2c-.43-1.09-.94-1.56-1.54-1.42,0-.09-.12-.12-.28-.07C249.3,204.46,248.89,205.15,249.24,206.23Z"></path><path class="cls-1" d="M264.42,200.85q.51,0,1,1.23c0,.67-.88,2.33-2.62,5a7.81,7.81,0,0,0-.89,3c0,.27.16.41.48.41h.41q2.19-.7,6.65-5.58a.78.78,0,0,0,.75-.81.16.16,0,0,1,.17-.17h.07q.12,0,.24.24v.24a3.4,3.4,0,0,1-.89,1.46q-.36,1.14-3.15,3.87a11.41,11.41,0,0,1-3.77,2.38h-.31a2.48,2.48,0,0,1-2.55-1.56c0-.16,0-.24-.07-.24.05-.21.1-.31.17-.31l-.1-.17v-.58a11.51,11.51,0,0,1,2.31-4.25,3.68,3.68,0,0,1,.79-1.13,3.62,3.62,0,0,0,.51-1.22v-.1h-.34a7.4,7.4,0,0,1-3.51,1.08h-.07a11.84,11.84,0,0,0-1.32,1.63,1,1,0,0,1-.48.15h-.07c-.29,0-.54-.22-.75-.65,0-.29.28-.58.75-.89a.89.89,0,0,1,.14-.41l-.55-.65v-.09a1,1,0,0,1,.55-.82h.58l1.22-.31.58.41a19.79,19.79,0,0,0,3.43-1.08A2.75,2.75,0,0,0,264.42,200.85Z"></path><path class="cls-1" d="M273.23,202.56h.19a1.53,1.53,0,0,1,1,1.06,23.34,23.34,0,0,0-.84,6.46c0,.06,0,.09.1.09l-.1.53c0,.37,0,1.08.1,2.12a1.57,1.57,0,0,0-.22.62.77.77,0,0,0,.12.43,37.3,37.3,0,0,1-.43,4.66l.65.1a3.41,3.41,0,0,0,.93-.43H275a.11.11,0,0,1,.12.12,8.12,8.12,0,0,1,1.8-.53l.31.22h.1c0-.31,1.23-.6,3.7-.87a1.1,1.1,0,0,1,.84-.41H282c0,.21.06.32.19.32l.43-.44.75.12h.21a1.88,1.88,0,0,1,1.06-.53.09.09,0,0,1,.1.1l1.27-.1H287l1.27-.43a3.14,3.14,0,0,1,.43.12,21.1,21.1,0,0,0,3.05-.65,1.26,1.26,0,0,0,.65.22.68.68,0,0,1,.72-.43h.53l.43.33h.1c0-.22.57-.44,1.7-.64h.22l.41.31c.11-.27.22-.41.31-.41h.34c1.68,0,2.52-.1,2.52-.31l.53.09h.43a7.23,7.23,0,0,1,.84-.21h.84c.08,0,.12,0,.12-.1l.19.1h3.18c.56,0,1.3,0,2.23.12.35-.08.53-.16.53-.22a2.47,2.47,0,0,0,.94.31,1.3,1.3,0,0,1,.64-.21h.32l.74.12c0-.15.08-.22.19-.22s.12,0,.12.1l.75-.1h.31a11.71,11.71,0,0,0,1.27.31c.1-.29.2-.43.32-.43h.09c.15,0,.22.11.22.34h.31l.43-.44h.53a11.93,11.93,0,0,1,1.68.22l.1-.22.53.1a1.73,1.73,0,0,0,.74-.19.28.28,0,0,1,.32.31h.12l.31-.22H320v.1l-.1.22h.84c0-.42.14-.63.41-.63l.21.1h.22l1.27-.1.22.41a6.89,6.89,0,0,1,2.31-.53,1.7,1.7,0,0,0,.86.34c0-.15.08-.22.19-.22h.12l.32.22h.31l.43-.34,1.27.22a3.58,3.58,0,0,1,.94-.22l.22.12.21-.12,2.21.22a1.68,1.68,0,0,0,.84-.31h.75a7.23,7.23,0,0,0,.84.21h1.37l.53.41h.12c0-.35.1-.53.31-.53a3.42,3.42,0,0,1,1.8.53h.1a3,3,0,0,0,1.18-.19l.62.09.43-.21.2.12a4.8,4.8,0,0,1,1-.12h.09a.11.11,0,0,1,.12.12l.53-.22a.76.76,0,0,0,.41.1h.12a.09.09,0,0,0,.1-.1,1.11,1.11,0,0,0,.62.22h.53V214h.33a.69.69,0,0,1,.41.12.83.83,0,0,1,.44-.12h.21c.1,0,.2.11.31.34a1,1,0,0,1-.43.09v.22c.21,0,.31.07.31.22v.09a4.17,4.17,0,0,1-.93-.31l-.44.1a1.14,1.14,0,0,1-.31-.1c-.91.06-1.37.17-1.37.31l-.53-.09h-.12a.08.08,0,0,0-.09.09,5.67,5.67,0,0,0-1-.21,8.64,8.64,0,0,0-2.31.43h-5.5c-.06,0-.1,0-.1.09l-.21-.09h-3.92a6.1,6.1,0,0,0-.94.09,1,1,0,0,0-.43-.09,3.4,3.4,0,0,0-1.06.21l-.62-.12h-.12a.92.92,0,0,0-.53.12l-.62-.12h-.31c-.71,0-1.06.09-1.06.22l-.22-.1h-.31a1.15,1.15,0,0,0-.53.1l-.65-.1h-.74a11.6,11.6,0,0,0-1.47.2q-1,0-6.56.12l-.84-.12-.43.21c0-.09-.1-.2-.31-.31H312l-.65.31a1.69,1.69,0,0,0-.84-.21,1.74,1.74,0,0,1-.84.33,7,7,0,0,1-1.68-.33,1.42,1.42,0,0,1-.74.43l-1.06-.1c-.72.11-1.64.22-2.74.31a.77.77,0,0,0-.34-.12l-4.22.44-.2-.1c-.93.05-1.39.11-1.39.19l-.19-.09H297c-.18,0-1.09.17-2.74.53L294,217h-.09l-2.77.53-.19-.12q-8.67,1.17-12.47,2.11h-1.17a21.79,21.79,0,0,1-3.8,1.06,1.26,1.26,0,0,0-1.06,1.37c-.16,0-.37.63-.64,1.9q-2.07,6-3.9,7.83a16.16,16.16,0,0,1-7.83,6.44,11.7,11.7,0,0,1-3.79.74h-.75a10.77,10.77,0,0,1-4.76-1.49,4.9,4.9,0,0,1-2.95-4.42c0-1.3.78-2.6,2.33-3.92a19,19,0,0,1,4.42-3.26,12.41,12.41,0,0,0,2.11-1.18q7.9-3.48,9-3.48a16,16,0,0,1,4.44-1.49c.77-.08,1.16-.39,1.16-.94v-.53l-.1-.62c0-.1.18-.27.53-.53l-.1-.53a.78.78,0,0,0,.1-.34l-.1-.19.1-.53-.1-.43a.81.81,0,0,0,.1-.31,3.23,3.23,0,0,1-.1-.75h.1l-.1-.21v-.31l.2-.32-.1-.43.43-1.06-.53-.62v-1.06l.2-.74a4.71,4.71,0,0,1-.2-.84h-.12q-2.53,3.48-3,3.48a2.65,2.65,0,0,1-2.23,1.59,1.85,1.85,0,0,1-2-1.81c.07-.2.14-.31.22-.31s0-.09-.12-.09l.12-.75v-.65c.22,0,.58-.84,1.06-2.52.93-2.47,1.62-3.7,2.09-3.7h.12c.41,0,.62.28.62.84-1.54,3.28-2.3,5.4-2.3,6.34v.22l.09.53a7.94,7.94,0,0,0,3.05-2.43,16.25,16.25,0,0,0,2.24-3.17,8.62,8.62,0,0,0,1.15-2.95A1.22,1.22,0,0,0,273.23,202.56ZM250,233.31v.43q1,3.48,5.91,3.92c1.14-.18,1.71-.32,1.71-.43l.53.09h.31l2.21-1.15.22.09h.31c0-.43.42-.71,1.27-.84a4.6,4.6,0,0,1,2-1.89q0-.72,1.59-1.59a1.23,1.23,0,0,0,.62-1.15c.16,0,.47-.46.94-1.37.28-.5.61-.75,1-.75v-.31c-.15-.18-.22-.29-.22-.34.26-.76.43-1.15.53-1.15s.38-.32.43-1c.07,0,.1,0,.1-.1v-.52c.43,0,.65-.36.65-1.06.09,0,.2-.21.31-.63a.19.19,0,0,0,.22-.21.8.8,0,0,1-.12-.32.19.19,0,0,0,.21-.21.79.79,0,0,0-.09-.31c0-.5.17-.75.52-.75v-.31a.19.19,0,0,0-.21-.22h-.12a78,78,0,0,0-12.57,4.54Q250,230.19,250,233.31ZM282.62,217v.19a.77.77,0,0,1,.43.12l.1-.21-.22-.1Zm38.25-2.76v.12h.21c.1,0,.2-.12.31-.34h-.31C320.94,214,320.87,214.07,320.87,214.19Zm19.55-.75h.31v.12h-.31Zm7.09.65a4.62,4.62,0,0,0,1.58.41v.34l-.74-.12h-.22l-.52.12c-.15-.18-.22-.29-.22-.34v-.19Z"></path><path class="cls-1" d="M296.34,192.33a2.11,2.11,0,0,1,.77.48q-.32.66-1.88,5.33a9,9,0,0,0-1.15,3.15,62.9,62.9,0,0,0-2.57,7h-.1a5.83,5.83,0,0,0,1.37-1.39,9.73,9.73,0,0,0,1.3-1.44l2.26-1.78,1.63-.55c.8,0,1.4.67,1.78,2v.09c0,.26-.13,1.44-.43,3.56.13.64.23,1,.31,1h.24q1.41,0,5-4.47a7.23,7.23,0,0,1,.93-1.23l.08-.38h.55l-.07.55c.2,0,.31.12.31.29a7.42,7.42,0,0,0-.46,1.8l-1.75,2.38-1.73,1.51a5,5,0,0,1-2.72,1.42,2.55,2.55,0,0,1-2.42-1.8l-.07-1.25a19.13,19.13,0,0,1,.38-3.41c0-.22-.08-.34-.19-.34q-1.79.68-5.62,5.36a12.53,12.53,0,0,1-2.53,3.6c-.92-.06-1.4-.33-1.41-.81,0-.29.07-.44.12-.44s0,.17-.1.17c.24-1,.43-1.56.58-1.56l0-.41c0-.17.46-1.49,1.37-4v0h-.17a30.35,30.35,0,0,0,1.54-3.56c.23-.78,1.36-3.62,3.39-8.5C295.43,193.13,295.92,192.33,296.34,192.33Z"></path><path class="cls-1" d="M307.13,203.45a1.82,1.82,0,0,1,1,.38,15.76,15.76,0,0,1-1.73,3.08,7.8,7.8,0,0,0-.58,2.69c.13.29.26.45.38.48q1,0,3.85-2.4,1.49-1.47,3.46-3.85a4.21,4.21,0,0,1,1.15-.19h.29c.09,0,.22.16.38.48a6.53,6.53,0,0,1-1.15,1.54,10.16,10.16,0,0,0-1,2.3v.87q0,.12.48.48,1.41,0,5.72-4.42a4,4,0,0,1,1.44-1.35h.09c.13,0,.2.08.2.2a17.33,17.33,0,0,1-3.89,5.67,5.44,5.44,0,0,1-3.56,1.63h-.1c-1.13,0-2-.8-2.59-2.4-2,2-3.33,3-3.94,3a4.64,4.64,0,0,1-1.15.19c-1.06,0-1.73-.71-2-2.12v-.09a9.45,9.45,0,0,1,2.59-6A2.14,2.14,0,0,0,307.13,203.45Z"></path><path class="cls-1" d="M328.72,193.05h.19a1.51,1.51,0,0,1,1.3.67v.09a15.37,15.37,0,0,1-1.58,3.85q0,1-2.89,4.23V202c1.35,0,2.05.58,2.09,1.73a12.7,12.7,0,0,1-.72,3.65h.29a17.67,17.67,0,0,0,5.57-3.6h.2c.12,0,.19.08.19.19q0,1-2.55,3.51a7.31,7.31,0,0,1-3.43,1.73,8.89,8.89,0,0,0-1.25-.1,20.82,20.82,0,0,0-2.28,2.5,7.32,7.32,0,0,1-2.58.77,2.87,2.87,0,0,1-2.13-2.88l0-.48.89-3.85a5.37,5.37,0,0,0-1.18-.57,1.16,1.16,0,0,1-.19-.48c0-.1.17-.29.55-.58l.2.1a2,2,0,0,0,2.14-1.35,5.5,5.5,0,0,1,1-1.73,33.3,33.3,0,0,1,4.64-6.44A13.11,13.11,0,0,1,328.72,193.05Zm-6.7,12.1a9.32,9.32,0,0,0-1.06,4.33c0,.83.27,1.25.72,1.25.71,0,1.68-.68,2.91-2l0-.1c-1.51-1.07-2.29-2.19-2.33-3.36Zm2-4.13v.1h.09a13.71,13.71,0,0,0,3.58-4.13c.32-.77.59-1.16.82-1.16l0-.67h-.09c-.37,0-1.08.77-2.12,2.31A16.42,16.42,0,0,0,324,201Zm.28,4.52a2,2,0,0,0,1.13,1.54h.29a5,5,0,0,0,1-3l-.12-.39a.61.61,0,0,0,.08-.38l-.29-.19h-.19c-1.14,0-1.78.73-1.93,2.21Z"></path><path class="cls-1" d="M346.84,203l.31-.07c1.94-.16,3,.06,3.19.67.1,0,.38.44.84,1.42a5.06,5.06,0,0,1-.09,1.92l0-.07h0a24,24,0,0,0,4.2-2.91,2.82,2.82,0,0,1,.77-.36q.36,1.16-3.84,4.54a7,7,0,0,1-2,1,20.12,20.12,0,0,1-2.69,2.43,4.34,4.34,0,0,0-.63.24,3.38,3.38,0,0,1-3.58-1.27c-.2-.36-.41-.75-.6-1.18a5,5,0,0,1,3.68-6.1S346.47,203.14,346.84,203Zm-2.67,5.45.07.22c.31,1,.66,1.53,1.06,1.61a2.14,2.14,0,0,0,1.08,0,4.26,4.26,0,0,0,1.42-1.08v0a4.66,4.66,0,0,1-2.77-2.57s-.09-.06-.14-.24a4.41,4.41,0,0,0-.1-.81h0A3.19,3.19,0,0,0,344.17,208.49Zm2.57-2.26c.53,1.19,1.23,1.67,2.11,1.45l.24-.05a3.05,3.05,0,0,0,.7-2c-.43-1.09-.94-1.56-1.54-1.42,0-.09-.12-.12-.28-.07C346.8,204.46,346.39,205.15,346.74,206.23Z"></path><path class="cls-1" d="M363.7,193.07c.71,0,1.23.51,1.56,1.54a9,9,0,0,1-1.92,5.26c-.19.66-1.54,2.06-4,4.23v.09a2.23,2.23,0,0,1,.68,1.3v1.83a4.13,4.13,0,0,0,3.36.1,10.76,10.76,0,0,0,2.52-2.17,16.17,16.17,0,0,1,1.18-1.32v-.19h.43v.81a19.15,19.15,0,0,1-2.1,3.49,5.17,5.17,0,0,1-2.33,1.57,5.24,5.24,0,0,1-3.4-.16h-.14c0,.34-.6,2.73-1.78,7.19a36.64,36.64,0,0,1-2.72,5.59,3.63,3.63,0,0,1-1.94.92,2.38,2.38,0,0,1-1.73-2.43,12.12,12.12,0,0,1,.19-1.73,5.56,5.56,0,0,1-.1-.79q.68-3.22,1.71-7.3l.65-2.31-.1-.19a9.42,9.42,0,0,1,1.06-2.65v-.07c-.13-1.1,0-1.66.5-1.66a3.13,3.13,0,0,0,.63-.74l-.1-.19a11.89,11.89,0,0,1,1.88-3.25c.36-1.31.77-2,1.22-2v0a.87.87,0,0,1-.09-.36q2.85-4.31,4.44-4.3Zm-7.23,13.12a14.12,14.12,0,0,0-1.49,4.42,58.35,58.35,0,0,0-1.68,9.61,3.13,3.13,0,0,1,.09.77q.92,0,3.2-6.47,1.08-4.35,1.42-6.12A11.67,11.67,0,0,1,356.47,206.19Zm1.39-3.32h0a36.94,36.94,0,0,0,3.89-3.41,6,6,0,0,0,1.7-3.56h-.16l.16-.33v-.65s0-.07-.12-.07a12,12,0,0,0-3.12,3.7C358.66,201,357.86,202.47,357.86,202.87Z"></path><path class="cls-1" d="M383.33,202.22a3.53,3.53,0,0,1,2.21,1.16c.83,0,1.25.28,1.25.86.06,0,.09,0,.09.1a9,9,0,0,0-1.34,4.13v.29c.13.57.29.86.48.86h.57c.9,0,2.41-1.21,4.52-3.65,0-.18.45-.56,1.35-1.15a1.68,1.68,0,0,1,.77-1.06h.09a1.2,1.2,0,0,0,.19.58,10.56,10.56,0,0,1-1.7,3.12q-3.19,4.18-5.41,4.18c-1.33,0-2.32-.77-3-2.31v-.19h-.28q-3.51,3-5.48,3h-.29a2.33,2.33,0,0,1-2.4-2v-.19c0-1.75,1.31-3.57,3.94-5.48l2.69-1.73C381.6,202.48,382.17,202.32,383.33,202.22Zm-6.25,7.4v.67c0,.13.08.2.19.2h.2c1.17,0,2.73-.93,4.7-2.79q1.83-1.87,1.83-2.88v-.1c0-.77-.29-1.15-.86-1.15a12.66,12.66,0,0,0-5,3.65A5.79,5.79,0,0,0,377.08,209.62Z"></path><path class="cls-1" d="M401.35,193.07c.7,0,1.22.51,1.56,1.54a9,9,0,0,1-1.92,5.26c-.2.66-1.54,2.06-4,4.23v.09a2.2,2.2,0,0,1,.67,1.3v1.83a4.16,4.16,0,0,0,3.37.1,11.18,11.18,0,0,0,2.52-2.17q1.13-1.32,1.17-1.32v-.19h.44v.81A18.53,18.53,0,0,1,403,208a5.11,5.11,0,0,1-2.33,1.57,5.21,5.21,0,0,1-3.39-.16h-.15c0,.34-.59,2.73-1.78,7.19a36.19,36.19,0,0,1-2.71,5.59,3.62,3.62,0,0,1-1.95.92,2.4,2.4,0,0,1-1.73-2.43,12.55,12.55,0,0,1,.2-1.73,4.38,4.38,0,0,1-.1-.79q.68-3.22,1.71-7.3l.64-2.31-.09-.19a9.41,9.41,0,0,1,1.05-2.65v-.07c-.12-1.1,0-1.66.51-1.66a3.26,3.26,0,0,0,.62-.74l-.09-.19a12,12,0,0,1,1.87-3.25c.37-1.31.78-2,1.23-2v0a.76.76,0,0,1-.1-.36q2.86-4.31,4.44-4.3Zm-7.24,13.12a14.39,14.39,0,0,0-1.49,4.42,58.35,58.35,0,0,0-1.68,9.61,2.71,2.71,0,0,1,.1.77q.91,0,3.19-6.47,1.09-4.35,1.42-6.12A12.15,12.15,0,0,1,394.11,206.19Zm1.4-3.32h0a35.83,35.83,0,0,0,3.89-3.41,6,6,0,0,0,1.71-3.56H401l.17-.33v-.65s0-.07-.12-.07a11.73,11.73,0,0,0-3.12,3.7Q395.51,202.27,395.51,202.87Z"></path><path class="cls-1" d="M411.07,200.85q.51,0,1,1.23,0,1-2.62,5a7.81,7.81,0,0,0-.89,3c0,.27.16.41.48.41h.41q2.19-.7,6.66-5.58a.78.78,0,0,0,.74-.81c0-.11.07-.17.17-.17h.07q.12,0,.24.24v.24a3.4,3.4,0,0,1-.89,1.46q-.36,1.14-3.14,3.87a11.55,11.55,0,0,1-3.78,2.38h-.31a2.48,2.48,0,0,1-2.55-1.56c0-.16,0-.24-.07-.24.05-.21.11-.31.17-.31l-.1-.17v-.58A11.51,11.51,0,0,1,409,205a3.9,3.9,0,0,1,.79-1.13,3.62,3.62,0,0,0,.51-1.22v-.1h-.34a7.37,7.37,0,0,1-3.51,1.08h-.07a12.84,12.84,0,0,0-1.32,1.63,1,1,0,0,1-.48.15h-.07c-.29,0-.54-.22-.75-.65,0-.29.28-.58.75-.89a1,1,0,0,1,.14-.41l-.55-.65v-.09a1,1,0,0,1,.55-.82h.58l1.22-.31.58.41a19.94,19.94,0,0,0,3.44-1.08A2.67,2.67,0,0,0,411.07,200.85Z"></path><path class="cls-1" d="M417,203.26h.19a.81.81,0,0,1,.77.48V204a11.44,11.44,0,0,0-1.63,5v1.06a1.11,1.11,0,0,0,.57,1.06h.77c.85,0,2.36-1,4.52-2.89.19,0,.38-.19.58-.57a27.32,27.32,0,0,0,2.59-2.69c.1,0,.19-.2.29-.58a1.82,1.82,0,0,1,.86-.39h.1c.13,0,.19.09.19.2a15.56,15.56,0,0,1-3.27,5.38,12.5,12.5,0,0,1-4.9,3.27l-1,.19q-3.36-.39-3.36-3.27c-.08,0-.14-.19-.19-.58.48-2.53,1.18-4.22,2.11-5.09Zm5.29-7.88,1.05.19v.29q-.33,1.08-3.17,3a4.83,4.83,0,0,1-2.11.86q-1-.12-1-1c0-.48,1-1.22,3.07-2.21A10.34,10.34,0,0,1,422.25,195.38Z"></path><path class="cls-1" d="M430.63,201.09H431c1,.13,1.51.55,1.51,1.25v.22c-.43,1.65-1,2.47-1.61,2.47a1.14,1.14,0,0,1-1.1-.91,6.57,6.57,0,0,0,.36-1.27q-.82.21-3.84,3.29a9.29,9.29,0,0,0-1,2.5v.69c0,.63.72.94,2.16.94a12.38,12.38,0,0,0,8.53-5q.32,0,1.71-1.32H438l.14,1q-.18,0-1.32,1.68c-.16,0-.73.6-1.73,1.8a11,11,0,0,1-8,3.55h-.46a3.27,3.27,0,0,1-3.39-2.73V209q0-2.28,2.69-4.71Q429.63,201.1,430.63,201.09Zm6.77,3.8s0,0,0,0l.22-.33v0h0S437.52,204.71,437.4,204.89Z"></path><path class="cls-1" d="M441.34,202.22a3.53,3.53,0,0,1,2.21,1.16c.84,0,1.25.28,1.25.86.07,0,.1,0,.1.1a8.87,8.87,0,0,0-1.35,4.13v.29c.13.57.29.86.49.86h.57c.9,0,2.4-1.21,4.52-3.65,0-.18.45-.56,1.34-1.15a1.76,1.76,0,0,1,.77-1.06h.1a1.1,1.1,0,0,0,.19.58,10.56,10.56,0,0,1-1.7,3.12q-3.21,4.18-5.41,4.18c-1.33,0-2.32-.77-3-2.31v-.19h-.29c-2.34,2-4.16,3-5.48,3h-.28a2.35,2.35,0,0,1-2.41-2v-.19c0-1.75,1.32-3.57,3.94-5.48l2.69-1.73C439.61,202.48,440.19,202.32,441.34,202.22Zm-6.24,7.4v.67c0,.13.08.2.19.2h.19q1.75,0,4.71-2.79,1.83-1.87,1.83-2.88v-.1c0-.77-.29-1.15-.87-1.15a12.64,12.64,0,0,0-5,3.65A5.67,5.67,0,0,0,435.1,209.62Z"></path><polygon class="cls-2" points="150.17 4.74 189.97 4.74 189.97 12.68 158.72 12.68 158.72 35.48 189.06 35.48 189.06 43.42 158.72 43.42 158.72 73.56 189.97 73.56 189.97 81.5 150.17 81.5 150.17 4.74"></polygon><path class="cls-2" d="M222.25,134.21a35.35,35.35,0,0,1-10.86,25.72,37.92,37.92,0,0,1-12.08,7.92,37,37,0,0,1-14.12,2.74,37.4,37.4,0,0,1-14.28-2.77,36.85,36.85,0,0,1-12-7.89,35.37,35.37,0,0,1-8.06-11.7,36,36,0,0,1,8.06-39.85,36.83,36.83,0,0,1,12-7.86,38.85,38.85,0,0,1,28.46,0,36.81,36.81,0,0,1,12,7.86,36.41,36.41,0,0,1,8.08,11.87,35.71,35.71,0,0,1,2.78,14m-11.75,0a26.56,26.56,0,0,0-1.92-10,25.88,25.88,0,0,0-5.52-8.43,24.56,24.56,0,0,0-17.87-7.58,25.48,25.48,0,0,0-23.45,16,26.88,26.88,0,0,0-1.89,10.05,26.32,26.32,0,0,0,1.89,9.94,25.65,25.65,0,0,0,5.5,8.39,24.62,24.62,0,0,0,17.95,7.58,24.54,24.54,0,0,0,9.65-1.94,25.53,25.53,0,0,0,8.22-5.64,26,26,0,0,0,7.44-18.33"></path></svg>