<?xml version="1.0" encoding="UTF-8"?><svg id="uuid-caa6d8f9-3f62-442f-b77b-5612856b88cf" xmlns="http://www.w3.org/2000/svg" xmlns:xlink="http://www.w3.org/1999/xlink" viewBox="0 0 190.92 55.28"><defs><linearGradient id="uuid-07d839aa-3cae-4ede-ab1d-2094567a5618" x1="1.98" y1="30.23" x2="181.78" y2="-7.44" gradientUnits="userSpaceOnUse"><stop offset="0" stop-color="#451d53"/><stop offset=".2" stop-color="#562568"/><stop offset=".46" stop-color="#672d7a"/><stop offset=".72" stop-color="#703286"/><stop offset="1" stop-color="#74348a"/></linearGradient><linearGradient id="uuid-3766457f-59f2-4202-85f1-b30601736a7e" x1="8.64" y1="62.02" x2="188.44" y2="24.35" xlink:href="#uuid-07d839aa-3cae-4ede-ab1d-2094567a5618"/><linearGradient id="uuid-748b2d7c-b08f-4cd1-b3e1-fa1e501c5de5" x1="9.49" y1="66.1" x2="189.29" y2="28.43" xlink:href="#uuid-07d839aa-3cae-4ede-ab1d-2094567a5618"/><linearGradient id="uuid-b9e519d6-731f-4897-9d00-3e546c6554a8" x1="10.2" y1="69.48" x2="190" y2="31.81" xlink:href="#uuid-07d839aa-3cae-4ede-ab1d-2094567a5618"/><linearGradient id="uuid-05f38fae-346d-4413-bf86-82a77f921e87" x1="11.08" y1="73.69" x2="190.89" y2="36.02" xlink:href="#uuid-07d839aa-3cae-4ede-ab1d-2094567a5618"/><linearGradient id="uuid-1cd719c0-de15-416b-91ee-f3b773cfdea6" x1="3.51" y1="37.56" x2="183.32" y2="-.11" xlink:href="#uuid-07d839aa-3cae-4ede-ab1d-2094567a5618"/><linearGradient id="uuid-4c7efe7d-7c21-4981-8cf8-41a787ca7080" x1="7.45" y1="56.33" x2="187.25" y2="18.67" xlink:href="#uuid-07d839aa-3cae-4ede-ab1d-2094567a5618"/><linearGradient id="uuid-ba7afc2f-457f-4702-ba29-1d91cf060ca3" x1="2.35" y1="32" x2="182.15" y2="-5.67" xlink:href="#uuid-07d839aa-3cae-4ede-ab1d-2094567a5618"/><linearGradient id="uuid-d5c2c453-ad6e-4ef5-a69c-122daba97dd2" x1="4.57" y1="42.61" x2="184.37" y2="4.94" xlink:href="#uuid-07d839aa-3cae-4ede-ab1d-2094567a5618"/><linearGradient id="uuid-8ef58e72-a794-4d60-82db-7f96e4672750" x1="3.45" y1="37.24" x2="183.25" y2="-.43" xlink:href="#uuid-07d839aa-3cae-4ede-ab1d-2094567a5618"/><linearGradient id="uuid-bd97dbff-445a-4a6b-941c-57cdd52d2fc8" x1="5.76" y1="48.3" x2="185.57" y2="10.63" xlink:href="#uuid-07d839aa-3cae-4ede-ab1d-2094567a5618"/><linearGradient id="uuid-492308bb-9c4f-43a0-92d3-0cab26b50cab" x1="0" y1="27.45" x2="52.35" y2="27.45" gradientUnits="userSpaceOnUse"><stop offset="0" stop-color="#b2831e"/><stop offset=".02" stop-color="#b5851c"/><stop offset=".2" stop-color="#c79416"/><stop offset=".39" stop-color="#d39d12"/><stop offset=".58" stop-color="#d7a111"/><stop offset="1" stop-color="#fcc200"/></linearGradient><linearGradient id="uuid-d11a2f1d-b73e-4456-b0c5-e73f22dcd431" x1="-.84" y1="16.8" x2="178.97" y2="-20.87" xlink:href="#uuid-07d839aa-3cae-4ede-ab1d-2094567a5618"/></defs><g id="uuid-4ba6a057-b0fc-48ca-95dd-73e90e7eb7bf"><g><path d="M15.68,0c-2.17,0-3.94,1.77-3.94,3.94V50.77c0,2.17,1.77,3.94,3.94,3.94s3.94-1.77,3.94-3.94V3.94c0-2.17-1.77-3.94-3.94-3.94Z" style="fill:url(#uuid-07d839aa-3cae-4ede-ab1d-2094567a5618);"/><g><path d="M102.55,51.03c-.46,1.56-1.48,2.71-3.06,3.46-1.12,.53-2.31,.8-3.59,.8h-10.61c-2.43,0-3.64-.8-3.64-2.39,0-.53,.12-1.15,.37-1.86l2.02-5.72-9.15,7.74c-2.14,1.49-3.91,2.23-5.29,2.23h-4.89l6.35-18.08h9.6l-3,8.51,8.11-6.65c2.2-1.79,4.58-2.65,7.15-2.58,1.74,.07,2.61,.99,2.61,2.76,0,.66-.14,1.39-.43,2.21l-3.43,9.57h10.87Z" style="fill:url(#uuid-3766457f-59f2-4202-85f1-b30601736a7e);"/><path d="M134.35,51.03c-.07,1.19-.75,2.19-2.03,3.02-1.29,.82-2.69,1.24-4.21,1.24h-20.21c-3.88,0-5.82-1.19-5.82-3.56,0-.21,.02-.44,.05-.69,.14-1.06,.71-1.89,1.7-2.47,.85-.51,1.83-.76,2.92-.74,1.91,.05,4.51,1.11,7.79,3.16,.94-1.17,1.41-2.36,1.41-3.56,0-.6-.38-1.98-1.14-4.12l-3,2.74h-5.32l7.07-6.54c-.32-.55-.54-1-.66-1.36-.23-.66-.35-1.4-.37-2.23l6.54-6.97c2.94,.5,4.41,1.83,4.41,4.01,0,1.28-.38,2.45-1.14,3.54,.66,1.74,1.32,3.47,1.99,5.21,.81,2.23,1.22,4.04,1.22,5.42,0,1.52-.6,2.83-1.81,3.91h10.61Z" style="fill:url(#uuid-748b2d7c-b08f-4cd1-b3e1-fa1e501c5de5);"/><path d="M170.66,51.03c-.46,1.56-1.44,2.71-2.95,3.46-1.08,.53-2.24,.8-3.48,.8h-11.33c-2,0-3-.73-3-2.18,0-.57,.13-1.26,.4-2.07l1.91-5.66-10.08,8.29c-1.24,1.08-2.55,1.62-3.93,1.62h-5.48l11.38-32.12h9.57l-8,22.6,8.11-6.65c2.09-1.72,4.47-2.58,7.12-2.58,1.77,0,2.66,.9,2.66,2.71,0,.66-.16,1.41-.48,2.26l-3.38,9.52h10.95Z" style="fill:url(#uuid-b9e519d6-731f-4897-9d00-3e546c6554a8);"/><path d="M190.92,51.03c-.46,1.56-1.42,2.71-2.87,3.46-1.05,.53-2.18,.8-3.4,.8h-10.5c-2.53,0-3.8-1.06-3.8-3.19,0-.6,.12-1.25,.37-1.94l4.63-12.95h9.65l-4.92,13.82h10.85Zm-1.91-24.72c0,1.77-.69,3.28-2.06,4.52-1.37,1.24-3.03,1.86-4.96,1.86s-3.64-.62-5.01-1.86c-1.37-1.24-2.06-2.75-2.06-4.52s.69-3.25,2.06-4.49c1.37-1.24,3.04-1.86,5.01-1.86s3.58,.62,4.96,1.86c1.37,1.24,2.06,2.74,2.06,4.49Z" style="fill:url(#uuid-05f38fae-346d-4413-bf86-82a77f921e87);"/></g><path d="M50.12,26.3c0,1.77,.69,3.28,2.06,4.52,1.37,1.24,3.04,1.86,5.01,1.86s3.58-.62,4.96-1.86c1.37-1.24,2.06-2.75,2.06-4.52s-.69-3.25-2.06-4.49c-1.37-1.24-3.03-1.86-4.96-1.86s-3.64,.62-5.01,1.86c-1.37,1.24-2.06,2.74-2.06,4.49Z" style="fill:url(#uuid-1cd719c0-de15-416b-91ee-f3b773cfdea6);"/><path d="M55.28,51.03l4.92-13.82h-9.65l-2.82,7.89-1.81,5.05c-.25,.69-.37,1.34-.37,1.94,0,.73,.15,1.33,.45,1.81,.25,.4,.6,.72,1.06,.94,.59,.29,1.36,.44,2.3,.44h10.5c1.22,0,2.36-.27,3.4-.8,1.45-.74,2.41-1.9,2.87-3.46h-10.85Z" style="fill:url(#uuid-4c7efe7d-7c21-4981-8cf8-41a787ca7080);"/><path d="M71.79,15.59l-5.73,3.13c-.44,.24-.6,.8-.36,1.24,.24,.44,.8,.6,1.24,.36l5.73-3.13c.44-.24,.6-.8,.36-1.24-.24-.44-.8-.6-1.24-.36Z" style="fill:url(#uuid-ba7afc2f-457f-4702-ba29-1d91cf060ca3);"/><path d="M75.09,27.89l-6.96-.45c-.5-.03-.93,.35-.97,.85-.03,.5,.35,.93,.85,.97l6.96,.45c.5,.03,.93-.35,.97-.85,.03-.5-.35-.93-.85-.97Z" style="fill:url(#uuid-d5c2c453-ad6e-4ef5-a69c-122daba97dd2);"/><path d="M79.79,20.29l-11.6,2.49c-.49,.11-.8,.59-.7,1.08,.11,.49,.59,.8,1.08,.7l11.6-2.49c.49-.11,.8-.59,.7-1.08-.11-.49-.59-.8-1.08-.7Z" style="fill:url(#uuid-8ef58e72-a794-4d60-82db-7f96e4672750);"/><path d="M12.79,38.47h-.02c-.35,0-.7,0-1.03,0v12.3c0,2.17,1.77,3.94,3.94,3.94s3.94-1.77,3.94-3.94v-11.46c-2.36-.57-4.66-.88-6.83-.85Z" style="fill:url(#uuid-bd97dbff-445a-4a6b-941c-57cdd52d2fc8);"/><path d="M45.92,50.15l1.81-5.05c-4.89-4.19-21.17-14.8-34.71-14.8-.08,0-.17,0-.25,0H7.91v-3.85c.85,.04,1.68,.06,2.51,.06,19.53,0,32.73-10.25,37.88-14.24,.42-.32,.78-.6,1.09-.84,2.28-1.71,3.34-4.47,2.85-7.38-.1-.6-.53-2.61-1.71-2.98-.43-.14-.87-.04-1.2,.25l-.16,.13C37.12,11.14,26.72,19.51,6.36,18.3h-.06c-2.16,0-3.81,.58-4.92,1.73C.06,21.4,.03,23.04,.03,23.34c0,.39-.07,6.75,0,10.22,.07,3.6,3.67,4.74,5.56,4.83h.03s2.97,.07,7.15,.07h.02c10.87-.2,25.09,8.34,33.21,15.43-.3-.48-.45-1.08-.45-1.81,0-.6,.12-1.25,.37-1.94Z" style="fill:url(#uuid-492308bb-9c4f-43a0-92d3-0cab26b50cab);"/><path d="M15.68,0c-2.17,0-3.94,1.77-3.94,3.94V26.7c2.76-.07,5.39-.33,7.88-.76V3.94c0-2.17-1.77-3.94-3.94-3.94Z" style="fill:url(#uuid-d11a2f1d-b73e-4456-b0c5-e73f22dcd431);"/></g></g></svg>